<?xml version="1.0" standalone="no"?>
<svg viewBox="0 0 200 200" xmlns="http://www.w3.org/2000/svg">
  <path fill="#FF0066" d="M42.9,-74C56,-66.8,67.2,-56.1,75.4,-43.1C83.5,-30.2,88.5,-15.1,89,0.3C89.4,15.6,85.3,31.2,77.5,44.8C69.8,58.4,58.4,69.9,44.8,78.5C31.3,87.1,15.7,92.8,-0.5,93.6C-16.6,94.4,-33.2,90.4,-46.4,81.5C-59.5,72.7,-69.1,59.1,-76.7,44.7C-84.3,30.3,-89.9,15.2,-89.9,0C-90,-15.2,-84.5,-30.4,-77,-44.9C-69.4,-59.3,-59.6,-72.9,-46.5,-80C-33.3,-87.1,-16.6,-87.8,-0.9,-86.3C14.9,-84.9,29.9,-81.2,42.9,-74Z" transform="translate(100 100)" />
</svg>
